#N canvas 0 0 450 300 10;
#N canvas 0 32 1259 711 nano 0;
#X obj 20 31 dac~;
#X obj 24 -5 *~;
#X obj 24 -34 osc~;
#X obj 24 -60 mtof;
#X obj 81 -92 / 127;
#X obj 61 61 line~;
#X msg 81 40 \$1 50;
#X obj 578 399 ctlin 15;
#X floatatom 580 439 5 0 0 0 - - -;
#X obj 663 396 ctlin 3;
#X floatatom 664 438 5 0 0 0 - - -;
#X obj 24 -115 ctlin 14;
#X floatatom 57 731 5 0 0 0 - - -;
#X floatatom 19 784 5 0 0 0 - - -;
#X floatatom 138 734 5 0 0 0 - - -;
#X obj 57 785 mtof;
#X obj 57 807 osc~;
#X obj 57 837 mix.out_~;
#X obj 18 685 f;
#X obj 47 685 + 1;
#X obj 18 707 % 60;
#X obj 18 729 + 60;
#X floatatom 69 612 5 0 0 0 - - -;
#X obj 18 654 metro 150;
#X obj 18 633 tgl 15 0 empty empty empty 0 -6 0 8 -262144 -1 -1 0 127
;
#X obj 57 756 musical.dodeca;
#X obj 77 637 convert.bpm2ms;
#X obj 13 573 ctlin 23;
#X obj 126 586 * 12;
#X obj 109 549 ctlin 2;
#X obj 81 -116 ctlin 2;
#X obj 80 -68 vsl 25 100 0 1 0 0 empty empty empty 0 -5 0 10 -203904
-1 -1 6236 1;
#X floatatom 24 -86 5 0 0 0 - - -;
#X obj 145 32 dac~;
#X obj 149 -4 *~;
#X obj 149 -31 osc~;
#X obj 149 -57 mtof;
#X obj 206 -89 / 127;
#X obj 186 64 line~;
#X msg 206 43 \$1 50;
#X obj 205 -65 vsl 25 100 0 1 0 0 empty empty empty 0 -5 0 10 -203904
-1 -1 0 1;
#X floatatom 149 -83 5 0 0 0 - - -;
#X obj 206 -113 ctlin 3;
#X obj 150 -114 ctlin 15;
#X obj 291 35 dac~;
#X obj 295 -1 *~;
#X obj 295 -30 osc~;
#X obj 295 -56 mtof;
#X obj 352 -88 / 127;
#X obj 332 65 line~;
#X msg 352 44 \$1 50;
#X obj 351 -64 vsl 25 100 0 1 0 0 empty empty empty 0 -5 0 10 -203904
-1 -1 0 1;
#X floatatom 295 -82 5 0 0 0 - - -;
#X obj 296 -113 ctlin 16;
#X obj 352 -112 ctlin 4;
#X obj 435 36 dac~;
#X obj 439 0 *~;
#X obj 439 -29 osc~;
#X obj 439 -55 mtof;
#X obj 496 -87 / 127;
#X obj 476 66 line~;
#X msg 496 45 \$1 50;
#X obj 495 -63 vsl 25 100 0 1 0 0 empty empty empty 0 -5 0 10 -203904
-1 -1 0 1;
#X floatatom 439 -81 5 0 0 0 - - -;
#X obj 439 -112 ctlin 17;
#X obj 496 -111 ctlin 5;
#X obj 573 34 dac~;
#X obj 577 -2 *~;
#X obj 577 -31 osc~;
#X obj 577 -57 mtof;
#X obj 634 -89 / 127;
#X obj 614 64 line~;
#X msg 634 43 \$1 50;
#X obj 633 -65 vsl 25 100 0 1 0 0 empty empty empty 0 -5 0 10 -203904
-1 -1 0 1;
#X floatatom 577 -83 5 0 0 0 - - -;
#X obj 577 -114 ctlin 18;
#X obj 634 -113 ctlin 6;
#X obj 1053 41 dac~;
#X obj 1057 5 *~;
#X obj 1057 -24 osc~;
#X obj 1057 -50 mtof;
#X obj 1114 -82 / 127;
#X obj 1094 71 line~;
#X msg 1114 50 \$1 50;
#X obj 1113 -58 vsl 25 100 0 1 0 0 empty empty empty 0 -5 0 10 -203904
-1 -1 0 1;
#X floatatom 1057 -76 5 0 0 0 - - -;
#X obj 698 36 dac~;
#X obj 702 0 *~;
#X obj 702 -29 osc~;
#X obj 702 -55 mtof;
#X obj 759 -87 / 127;
#X obj 739 66 line~;
#X msg 759 45 \$1 50;
#X obj 758 -63 vsl 25 100 0 1 0 0 empty empty empty 0 -5 0 10 -203904
-1 -1 0 1;
#X floatatom 702 -81 5 0 0 0 - - -;
#X obj 812 35 dac~;
#X obj 816 -1 *~;
#X obj 816 -30 osc~;
#X obj 816 -56 mtof;
#X obj 873 -88 / 127;
#X obj 853 65 line~;
#X msg 873 44 \$1 50;
#X obj 872 -64 vsl 25 100 0 1 0 0 empty empty empty 0 -5 0 10 -203904
-1 -1 0 1;
#X floatatom 816 -82 5 0 0 0 - - -;
#X obj 929 39 dac~;
#X obj 933 3 *~;
#X obj 933 -26 osc~;
#X obj 933 -52 mtof;
#X obj 990 -84 / 127;
#X obj 970 69 line~;
#X msg 990 48 \$1 50;
#X obj 989 -60 vsl 25 100 0 1 0 0 empty empty empty 0 -5 0 10 -203904
-1 -1 0 1;
#X floatatom 933 -78 5 0 0 0 - - -;
#X obj 759 -111 ctlin 8;
#X obj 873 -112 ctlin 9;
#X obj 990 -108 ctlin 12;
#X obj 597 232 dac~;
#X obj 601 196 *~;
#X obj 638 262 line~;
#X msg 658 241 \$1 50;
#X obj 702 -112 ctlin 19;
#X obj 816 -113 ctlin 20;
#X obj 933 -109 ctlin 21;
#X obj 1114 -105 ctlin 13;
#X obj 1057 -107 ctlin 22;
#X obj 1054 131 freeverb~;
#X msg 1149 162 roomsize \$1;
#X msg 1149 184 damping \$1;
#X msg 1149 206 width \$1;
#X msg 1149 228 wet \$1;
#X msg 1149 250 dry \$1;
#X msg 1149 272 print;
#X msg 1149 294 freeze \$1;
#X msg 1149 316 bypass \$1;
#X connect 1 0 0 0;
#X connect 1 0 0 1;
#X connect 2 0 1 0;
#X connect 3 0 2 0;
#X connect 4 0 31 0;
#X connect 5 0 1 1;
#X connect 6 0 5 0;
#X connect 7 0 8 0;
#X connect 9 0 10 0;
#X connect 11 0 32 0;
#X connect 12 0 25 0;
#X connect 14 0 25 1;
#X connect 15 0 16 0;
#X connect 16 0 17 0;
#X connect 16 0 17 1;
#X connect 18 0 19 0;
#X connect 18 0 20 0;
#X connect 19 0 18 1;
#X connect 20 0 21 0;
#X connect 21 0 25 0;
#X connect 22 0 26 0;
#X connect 23 0 18 0;
#X connect 24 0 23 0;
#X connect 25 0 13 0;
#X connect 25 0 15 0;
#X connect 26 0 23 1;
#X connect 27 0 24 0;
#X connect 28 0 22 0;
#X connect 29 0 28 0;
#X connect 30 0 4 0;
#X connect 31 0 6 0;
#X connect 32 0 3 0;
#X connect 34 0 33 0;
#X connect 34 0 33 1;
#X connect 35 0 34 0;
#X connect 36 0 35 0;
#X connect 37 0 40 0;
#X connect 38 0 34 1;
#X connect 39 0 38 0;
#X connect 40 0 39 0;
#X connect 41 0 36 0;
#X connect 42 0 37 0;
#X connect 43 0 41 0;
#X connect 45 0 44 0;
#X connect 45 0 44 1;
#X connect 46 0 45 0;
#X connect 47 0 46 0;
#X connect 48 0 51 0;
#X connect 49 0 45 1;
#X connect 50 0 49 0;
#X connect 51 0 50 0;
#X connect 52 0 47 0;
#X connect 53 0 52 0;
#X connect 54 0 48 0;
#X connect 56 0 55 0;
#X connect 56 0 55 1;
#X connect 57 0 56 0;
#X connect 58 0 57 0;
#X connect 59 0 62 0;
#X connect 60 0 56 1;
#X connect 61 0 60 0;
#X connect 62 0 61 0;
#X connect 63 0 58 0;
#X connect 64 0 63 0;
#X connect 65 0 59 0;
#X connect 67 0 66 0;
#X connect 67 0 66 1;
#X connect 68 0 67 0;
#X connect 69 0 68 0;
#X connect 70 0 73 0;
#X connect 71 0 67 1;
#X connect 72 0 71 0;
#X connect 73 0 72 0;
#X connect 74 0 69 0;
#X connect 75 0 74 0;
#X connect 76 0 70 0;
#X connect 78 0 77 0;
#X connect 78 0 77 1;
#X connect 79 0 125 0;
#X connect 80 0 79 0;
#X connect 81 0 84 0;
#X connect 82 0 78 1;
#X connect 83 0 82 0;
#X connect 84 0 83 0;
#X connect 85 0 80 0;
#X connect 87 0 86 0;
#X connect 87 0 86 1;
#X connect 88 0 87 0;
#X connect 89 0 88 0;
#X connect 90 0 93 0;
#X connect 91 0 87 1;
#X connect 92 0 91 0;
#X connect 93 0 92 0;
#X connect 94 0 89 0;
#X connect 96 0 95 0;
#X connect 96 0 95 1;
#X connect 97 0 96 0;
#X connect 98 0 97 0;
#X connect 99 0 102 0;
#X connect 100 0 96 1;
#X connect 101 0 100 0;
#X connect 102 0 101 0;
#X connect 103 0 98 0;
#X connect 105 0 104 0;
#X connect 105 0 104 1;
#X connect 106 0 105 0;
#X connect 107 0 106 0;
#X connect 108 0 111 0;
#X connect 109 0 105 1;
#X connect 110 0 109 0;
#X connect 111 0 110 0;
#X connect 112 0 107 0;
#X connect 113 0 90 0;
#X connect 114 0 99 0;
#X connect 115 0 108 0;
#X connect 117 0 116 0;
#X connect 117 0 116 1;
#X connect 118 0 117 1;
#X connect 119 0 118 0;
#X connect 120 0 94 0;
#X connect 121 0 103 0;
#X connect 122 0 112 0;
#X connect 123 0 81 0;
#X connect 124 0 85 0;
#X connect 125 0 78 0;
#X connect 126 0 125 0;
#X connect 127 0 125 0;
#X restore 62 138 pd nano;
