#N canvas 226 33 1009 815 10;
#X obj 39 131 lop~;
#X floatatom 132 228 6 0 0 1 FREQUENCE - -;
#X obj 137 209 hsl 128 15 20 20000 1 0 empty empty empty -2 -6 0 10
-262144 -1 -1 0 1;
#X obj 39 107 phasor~ 400;
#X obj 36 155 lop~;
#X obj 37 191 lop~;
#X floatatom 120 157 5 0 0 0 - - -;
#X obj 169 133 pipe 500;
#X floatatom 216 109 5 0 0 0 - - -;
#X obj 123 88 spigot;
#X obj 155 69 tgl 15 0 empty empty empty 17 7 0 10 -262144 -1 -1 2
2;
#X obj 152 38 keyup;
#X obj 36 246 dac~;
#X text 50 30 grave;
#X obj 329 133 metro 1000;
#X obj 324 107 tgl 15 0 empty empty empty 17 7 0 10 -262144 -1 -1 2
2;
#X obj 329 168 bng 15 250 50 0 empty empty empty 17 7 0 10 -262144
-1 -1;
#X obj 503 296 susloop~;
#X connect 0 0 4 0;
#X connect 1 0 0 1;
#X connect 1 0 4 1;
#X connect 1 0 5 1;
#X connect 2 0 1 0;
#X connect 3 0 0 0;
#X connect 4 0 5 0;
#X connect 5 0 12 0;
#X connect 5 0 12 1;
#X connect 6 0 3 0;
#X connect 6 0 7 0;
#X connect 7 0 9 0;
#X connect 8 0 7 1;
#X connect 9 0 6 0;
#X connect 10 0 9 1;
#X connect 10 0 15 0;
#X connect 14 0 16 0;
#X connect 15 0 14 0;
