#N canvas 679 149 880 784 10;
#X obj 56 86 mapping_tool1;
#X obj 565 193 gemwin;
#X msg 563 138 create \, 1;
#X msg 608 165 0 \, destroy;
#X obj 389 174 openpanel;
#X msg 391 212 open \$1;
#X obj 383 145 bng 15 250 50 0 empty empty empty 17 7 0 10 -262144
-1 -1;
#X msg 364 294 auto \$1;
#X obj 360 267 tgl 15 0 empty empty empty 17 7 0 10 -262144 -1 -1 1
1;
#X floatatom 296 39 5 0 0 0 - - -;
#X connect 2 0 1 0;
#X connect 3 0 1 0;
#X connect 4 0 5 0;
#X connect 5 0 0 0;
#X connect 6 0 4 0;
#X connect 7 0 0 0;
#X connect 8 0 7 0;
#X connect 9 0 0 1;
