#N canvas 472 129 886 675 10;
#X declare -lib Gem;
#X obj 239 -77 janela;
#X obj 108 446 pix_texture;
#X obj 228 190 pdp_colorgrid pdp_colorgrid1 256 0 256 50 0 50 0 1 1
10 10 316 232;
#X msg 249 159 tolerance \$1;
#X floatatom 335 161 5 0 0 0 - - -;
#X text 376 160 tolerance applied for the selection of colors;
#X msg 226 134 pick \$1 \$2;
#X text 298 131 pick a color from the video;
#X obj 176 270 pix_opencv_colorfilt;
#X obj 108 395 pix_alpha;
#X obj 542 -41 organicvideo2 1;
#X obj 115 4 gemhead 2;
#X obj 228 309 / 256;
#X obj 278 309 / 256;
#X obj 328 309 / 256;
#X obj 228 340 t b f;
#X obj 279 341 t b f;
#X obj 228 370 pack f f f;
#X obj 244 398 prepend set;
#X msg 244 450 0.692064 0.972 0.70956;
#X obj 72 326 hsl 128 15 0 1 0 0 empty empty empty -2 -8 0 10 -262144
-1 -1 0 1;
#X obj 114 187 pix_rgba;
#X obj 109 421 alpha;
#X msg 541 -86 tamanho \$1;
#X floatatom 622 -84 5 0 0 0 - - -;
#X msg 678 -82 transparencia \$1;
#X floatatom 732 -58 5 0 0 0 - - -;
#X msg 245 493 1 1 1;
#X obj 418 310 / 256;
#X obj 468 310 / 256;
#X obj 518 310 / 256;
#X obj 418 341 t b f;
#X obj 469 342 t b f;
#X obj 418 371 pack f f f;
#X obj 434 398 prepend set;
#X msg 434 451 0.219251 0.499187 0.236748;
#X obj 418 286 - 10;
#X obj 468 286 - 10;
#X obj 518 286 - 10;
#X floatatom 566 263 5 0 0 0 - - -;
#X msg 302 492 1 1 1;
#X msg 358 490 0 0 0;
#X obj 115 109 pix_image;
#X msg 13 76 open \$1;
#X obj 16 54 openpanel;
#X obj 22 28 bng 15 250 50 0 empty empty empty 17 7 0 10 -262144 -1
-1;
#X obj 249 421 t b a;
#X obj 424 426 t b a;
#X obj 85 357 hsl 128 15 0 1 0 0 empty empty empty -2 -8 0 10 -262144
-1 -1 2400 1;
#X obj 115 156 pix_invert;
#X obj 107 492 scale;
#X floatatom 125 469 5 0 0 0 - - -;
#X obj 106 527 translateXYZ;
#X floatatom 217 544 5 0 0 0 - - -;
#X floatatom 259 542 5 0 0 0 - - -;
#X floatatom 303 544 5 0 0 0 - - -;
#X obj 107 550 4corners;
#X connect 1 0 50 0;
#X connect 2 0 8 1;
#X connect 2 0 12 0;
#X connect 2 0 36 0;
#X connect 2 1 8 2;
#X connect 2 1 13 0;
#X connect 2 1 37 0;
#X connect 2 2 8 3;
#X connect 2 2 14 0;
#X connect 2 2 38 0;
#X connect 3 0 8 0;
#X connect 4 0 3 0;
#X connect 6 0 8 0;
#X connect 8 0 9 0;
#X connect 9 0 22 0;
#X connect 11 0 42 0;
#X connect 12 0 17 0;
#X connect 13 0 15 0;
#X connect 14 0 16 0;
#X connect 15 0 17 0;
#X connect 15 1 17 1;
#X connect 16 0 17 0;
#X connect 16 1 17 2;
#X connect 17 0 18 0;
#X connect 18 0 46 0;
#X connect 19 0 9 3;
#X connect 20 0 9 1;
#X connect 21 0 8 0;
#X connect 22 0 1 0;
#X connect 23 0 10 0;
#X connect 24 0 23 0;
#X connect 25 0 10 0;
#X connect 26 0 25 0;
#X connect 27 0 9 3;
#X connect 28 0 33 0;
#X connect 29 0 31 0;
#X connect 30 0 32 0;
#X connect 31 0 33 0;
#X connect 31 1 33 1;
#X connect 32 0 33 0;
#X connect 32 1 33 2;
#X connect 33 0 34 0;
#X connect 34 0 47 0;
#X connect 36 0 28 0;
#X connect 37 0 29 0;
#X connect 38 0 30 0;
#X connect 39 0 36 1;
#X connect 39 0 37 1;
#X connect 39 0 38 1;
#X connect 40 0 9 4;
#X connect 41 0 9 4;
#X connect 42 0 49 0;
#X connect 43 0 42 0;
#X connect 44 0 43 0;
#X connect 45 0 44 0;
#X connect 46 0 19 0;
#X connect 46 1 19 0;
#X connect 47 0 35 0;
#X connect 47 1 35 0;
#X connect 48 0 9 2;
#X connect 49 0 21 0;
#X connect 50 0 52 0;
#X connect 51 0 50 1;
#X connect 52 0 56 0;
#X connect 53 0 52 1;
#X connect 54 0 52 2;
#X connect 55 0 52 3;
