#N canvas 166 185 406 677 10;
#X obj 60 450 pix_texture;
#X obj 60 409 pix_alpha;
#X obj 153 211 hsl 200 20 0 1 0 0 empty empty empty -2 -8 0 10 -203904
-1 -1 7700 1;
#X obj 60 261 pix_rgba;
#X msg 142 324 1 1 1;
#X msg 166 358 1 1 1;
#X obj 60 199 pix_image;
#X msg 205 148 open \$1;
#X obj 205 127 openpanel;
#X obj 205 103 bng 15 250 50 0 empty empty empty 17 7 0 10 -258113
-1 -1;
#X obj 60 506 scale;
#X floatatom 73 485 5 0 0 0 - - -;
#X obj 60 571 translateXYZ;
#X floatatom 83 543 5 0 0 0 - - -;
#X obj 60 614 rectangle 4 3;
#X floatatom 123 543 5 0 0 0 - - -;
#X floatatom 163 543 5 0 0 0 - - -;
#X obj 60 91 gemhead 200;
#X text 230 101 abrir imagem pra máscara;
#X obj 60 38 f \$1;
#X msg 60 60 set \$1;
#X obj 334 17 loadbang;
#X obj 334 40 s \$0-lb;
#X obj 60 17 r \$0-lb;
#X obj 233 279 r \$0-lb;
#X obj 153 241 hsl 200 20 0 1 0 0 empty empty empty -2 -8 0 10 -203904
-1 -1 19900 1;
#X text 189 187 opacidade da máscara;
#X obj 60 144 alpha;
#X msg 192 440 1;
#X msg 233 480 5;
#X obj 205 28 inlet;
#X connect 0 0 10 0;
#X connect 1 0 0 0;
#X connect 2 0 1 1;
#X connect 3 0 1 0;
#X connect 4 0 1 3;
#X connect 5 0 1 4;
#X connect 6 0 3 0;
#X connect 7 0 6 0;
#X connect 8 0 7 0;
#X connect 9 0 8 0;
#X connect 10 0 12 0;
#X connect 11 0 10 1;
#X connect 12 0 14 0;
#X connect 13 0 12 1;
#X connect 15 0 12 2;
#X connect 16 0 12 3;
#X connect 17 0 27 0;
#X connect 19 0 20 0;
#X connect 20 0 17 0;
#X connect 21 0 22 0;
#X connect 23 0 19 0;
#X connect 24 0 4 0;
#X connect 24 0 5 0;
#X connect 24 0 28 0;
#X connect 24 0 29 0;
#X connect 25 0 1 2;
#X connect 27 0 6 0;
#X connect 28 0 11 0;
#X connect 29 0 16 0;
#X connect 30 0 9 0;
