#N canvas 772 189 497 390 10;
#X obj 82 98 bng 15 250 50 0 empty empty empty 17 7 0 10 -262144 -1
-1;
#X obj 82 155 symbol2list /;
#X obj 82 130 openpanel;
#X obj 82 250 packel;
#X obj 115 206 length;
#X floatatom 115 229 5 0 0 0 - - -;
#X obj 82 183 t l l;
#X obj 312 290 outlet;
#X obj 82 38 inlet;
#X obj 82 290 outlet;
#X text 79 313 Dá caminho inteiro do arquivo;
#X text 310 313 Dá nome do arquivo;
#X msg 8 6;
#X msg 468 6;
#X msg 8 366;
#X msg 468 366;
#X obj 264 38 inlet;
#X obj 82 64 route bang;
#X connect 0 0 2 0;
#X connect 1 0 6 0;
#X connect 2 0 1 0;
#X connect 2 0 9 0;
#X connect 3 0 7 0;
#X connect 4 0 5 0;
#X connect 5 0 3 1;
#X connect 6 0 3 0;
#X connect 6 1 4 0;
#X connect 8 0 17 0;
#X connect 16 0 2 0;
#X connect 17 0 0 0;
#X connect 17 1 2 0;
