#N canvas 66 241 710 341 10;
#X declare -lib Gem;
#X msg 2 2;
#X msg 2 313;
#N canvas 20 70 1015 733 variaveis 0;
#X msg 34 73 \$0-videobuffer - buffer do vídeo \, gerado no loadbang
;
#X msg 34 93 \$0-canalbuffer - canal de mensagens para o buffer;
#X msg 34 43 \$0-lb - loadbang;
#X msg 34 123 \$0-frames - número de frames do vídeo aberto;
#X msg 34 143 \$0-altura - altura em pixels do vídeo aberto;
#X msg 34 163 \$0-largura - largura em pixels do vídeo aberto;
#X msg 34 193 \$0-carregado - bang quando o video acaba de ser carregado
;
#X msg 34 213 \$0-videoaberto - nome do vídeo carregado no buffer;
#X msg 34 243 \$0-inicio - ponto de início da reprodução - 0 a 1;
#X msg 34 263 \$0-inicioin - entrada de dados para slider do início
;
#X msg 34 283 \$0-fim - ponto do fim da reprodução - 0 a 1;
#X msg 34 333 \$0-navega - slider de navegação no vídeo;
#X msg 34 353 \$0-navegain - entrada de dados para slider de navegação
;
#X msg 34 383 \$0-play - bang do play início-fim;
#X msg 34 403 \$0-playin - entrada para bang do play início-fim;
#X msg 34 483 \$0-final - bang no final da reprodução;
#X msg 34 513 \$0-render - canal de mensagens pro render do vídeo;
#X msg 34 533 \$0-renderin - entrada do canal de mensagens pro render
;
#X msg 34 563 \$0-loop - loop de reprodução;
#X msg 34 583 \$0-loopin - entrada de dados pra loop de reprodução
;
#X msg 34 613 \$0-transparencia - controle de transperência (alpha)
;
#X msg 34 633 \$0-transparenciain - entrada do controle de transperência
;
#X msg 534 43 \$0-X - posição no eixo X;
#X msg 534 93 \$0-Y - posição no eixo Y;
#X msg 534 193 \$0-T - tamanho do vídeo;
#X msg 34 433 \$0-stop - stop na reprodução;
#X msg 34 453 \$0-stopin - entrada para stop na reprodução;
#X msg 534 243 \$0-abrevideo - carrega vídeo no buffer;
#X msg 534 263 \$0-abrevideoin - entrada de dados no bang de carregar
;
#X msg 34 303 \$0-fimin - entrada de dados para slider do fim;
#X msg 534 63 \$0-Xin - entrada para posição no eixo X;
#X msg 534 143 \$0-Z - posição no eixo Z;
#X msg 534 113 \$0-Yin - entrada para posição no eixo Y;
#X msg 534 163 \$0-Zin - entrada para posição no eixo Z;
#X msg 534 213 \$0-Tin - entrada para tamanho do vídeo;
#X msg 534 293 \$0-visor - saída de info do visor de nome do vídeo
;
#X msg 534 323 \$0-caminho - entrada de caminho para abrir vídeo;
#X restore 118 27 pd variaveis;
#N canvas 301 376 714 559 carrega_video 0;
#X obj 252 315 unpack f f f;
#X floatatom 252 340 5 0 0 0 - - -;
#X floatatom 299 340 5 0 0 0 - - -;
#X floatatom 346 340 5 0 0 0 - - -;
#X obj 252 163 opfilename;
#X symbolatom 309 187 30 0 0 0 - - -;
#X obj 252 81 bng 20 250 50 0 empty empty empty 17 7 0 10 -258113 -1
-1;
#X text 249 356 frames;
#X text 297 356 altura;
#X text 344 356 largura;
#X msg 252 218 open \$1;
#X obj 252 240 pix_buffer_filmopen \$0-videobuffer;
#X obj 453 265 bng 15 250 50 0 empty empty empty 17 7 0 10 -262144
-1 -1;
#X obj 252 383 s \$0-frames;
#X obj 332 383 s \$0-altura;
#X obj 412 383 s \$0-largura;
#X obj 479 263 s \$0-carregado;
#X text 477 283 bang quando carrega;
#X obj 52 472 s \$0-canalbuffer;
#X msg 52 449 resize \$1;
#X text 49 492 ajusta capacidade do buffer;
#X msg 142 432 10000;
#X text 187 432 tamanho máximo do buffer em frames = 5 \, 5 minutos
;
#X text 338 166 nome do vídeo aberto;
#X obj 501 186 s \$0-videoaberto;
#X text 280 82 abrir vídeo;
#X obj 252 36 r \$0-abrevideo;
#X obj 252 285 t b a;
#X obj 63 326 s \$0-inicioin;
#X obj 149 326 s \$0-fimin;
#X obj 149 302 t b b;
#X obj 453 504 outlet;
#X text 503 504 bang quando carrega;
#X obj 488 332 s \$0-renderin;
#X msg 488 311 1;
#X text 485 352 religa render depois de abrir;
#X obj 55 36 r \$0-caminho;
#X obj 252 122 t b b;
#X connect 0 0 1 0;
#X connect 0 0 13 0;
#X connect 0 1 2 0;
#X connect 0 1 14 0;
#X connect 0 2 3 0;
#X connect 0 2 15 0;
#X connect 1 0 19 0;
#X connect 4 0 10 0;
#X connect 4 1 5 0;
#X connect 4 1 24 0;
#X connect 6 0 37 0;
#X connect 10 0 11 0;
#X connect 11 0 27 0;
#X connect 11 1 12 0;
#X connect 11 1 16 0;
#X connect 11 1 34 0;
#X connect 12 0 31 0;
#X connect 19 0 18 0;
#X connect 21 0 19 0;
#X connect 26 0 6 0;
#X connect 27 0 30 0;
#X connect 27 1 0 0;
#X connect 30 0 29 0;
#X connect 30 1 28 0;
#X connect 34 0 33 0;
#X connect 36 0 10 0;
#X connect 37 0 4 0;
#X connect 37 1 21 0;
#X restore 384 99 pd carrega_video;
#X obj 146 124 bng 15 250 50 0 \$0-abrevideo \$0-abrevideoin empty
17 7 0 10 -4160 -262144 -1;
#N canvas 71 422 419 197 buffer 0;
#X obj 63 38 r \$0-canalbuffer;
#X obj 63 82 pix_buffer \$0-videobuffer 1000;
#X floatatom 63 125 10 0 0 0 - - -;
#X text 134 125 capacidade atual do buffer em frames;
#X obj 74 61 bng 15 250 50 0 empty empty empty 17 7 0 10 -262144 -1
-1;
#X connect 0 0 1 0;
#X connect 1 0 2 0;
#X connect 4 0 1 0;
#X restore 205 27 pd buffer;
#X obj 112 197 hsl 128 10 0 1 0 0 \$0-inicio \$0-inicioin empty -2
-8 0 10 -191407 -1 -1 10300 1;
#X obj 112 207 hsl 128 10 0 1 0 0 \$0-fim \$0-fimin empty -2 -8 0 10
-191407 -1 -1 12700 1;
#X obj 180 124 bng 15 250 50 0 \$0-play \$0-playin empty 17 7 0 10
-4034 -1 -1;
#N canvas 0 22 450 300 init 0;
#X obj 37 31 loadbang;
#X obj 37 53 s \$0-lb;
#X obj 37 96 r \$0-lb;
#X obj 148 183 r \$0-lb;
#X obj 148 225 s \$0-Tin;
#X msg 148 204 0.5;
#X obj 211 225 s \$0-videoaberto;
#X msg 211 203 symbol vazio;
#X obj 36 140 s \$0-inicioin;
#X obj 125 140 s \$0-fimin;
#X msg 37 119 0;
#X msg 78 118 1;
#X obj 38 179 r \$0-lb;
#X obj 38 223 s \$0-renderin;
#X msg 38 201 1;
#X connect 0 0 1 0;
#X connect 2 0 10 0;
#X connect 2 0 11 0;
#X connect 3 0 5 0;
#X connect 3 0 7 0;
#X connect 5 0 4 0;
#X connect 7 0 6 0;
#X connect 10 0 8 0;
#X connect 11 0 9 0;
#X connect 12 0 14 0;
#X connect 14 0 13 0;
#X restore 62 27 pd init;
#X obj 112 175 hsl 128 12 0 1 0 0 \$0-navega \$0-navegain empty -2
-8 0 10 -260097 -1 -1 10917 1;
#N canvas 13 58 830 762 reproduz 0;
#X obj 368 94 r \$0-inicio;
#X obj 443 94 r \$0-fim;
#X obj 458 199 r \$0-frames;
#X obj 262 434 line;
#X msg 262 404 1 1632.76;
#X msg 384 367 set \$1 \$2;
#X obj 443 146 -;
#X obj 443 114 t b f;
#X obj 443 249 expr $f1 / 50 * 1000;
#X obj 443 171 expr if($f1 < 0 \, $f1 * -1 \, $f1);
#X obj 443 223 *;
#X floatatom 443 277 10 0 0 0 - - -;
#X text 577 249 calcula tempo de reprodução em ms;
#X obj 443 309 t b f;
#X text 459 338 monta mensagem para o play;
#X obj 384 309 r \$0-fim;
#X obj 262 338 t b b;
#X msg 183 361 set \$1;
#X obj 183 338 r \$0-inicio;
#X msg 200 404 0.811024;
#X obj 178 487 r \$0-navega;
#X msg 304 461 set \$1;
#X obj 304 480 s \$0-navegain;
#X obj 262 529 *;
#X obj 277 510 r \$0-frames;
#X msg 205 434 stop;
#X obj 262 234 r \$0-play;
#X obj 176 234 bng 15 250 50 0 empty empty empty 17 7 0 10 -4034 -1
-1;
#X text 174 214 play;
#X obj 178 512 t f b;
#X obj 262 550 int;
#X obj 437 451 select;
#X obj 470 429 r \$0-fim;
#X obj 437 495 s \$0-bangfinal;
#X obj 437 472 bng 15 250 50 0 empty empty empty 17 7 0 10 -262144
-1 -1;
#X text 490 451 bang no fim da reprodução;
#X floatatom 262 617 5 0 0 0 - - -;
#X obj 85 103 gemhead;
#X obj 85 42 r \$0-render;
#X obj 85 75 tgl 15 0 empty empty empty 17 7 0 10 -262144 -1 -1 1 1
;
#X obj 85 641 pix_buffer_read \$0-videobuffer;
#X obj 85 666 pix_separator;
#X msg 167 86 set \$1;
#X obj 167 64 f \$1;
#X obj 167 42 r \$0-lb;
#X msg 167 108 0;
#X text 166 22 ordem de renderização - argumento inicial do organicvideo
;
#X text 199 107 posição no render;
#X obj 384 338 pack f f;
#X obj 470 591 r \$0-loop;
#X obj 470 613 tgl 15 0 empty empty empty 17 7 0 10 -4032 -1 -1 1 1
;
#X obj 437 634 spigot;
#X obj 437 567 r \$0-bangfinal;
#X obj 437 659 s \$0-playin;
#X text 382 611 looper;
#X obj 85 691 pix_rgba;
#X obj 134 434 r \$0-stop;
#X msg 134 456 stop;
#X obj 134 234 bng 15 250 50 0 empty empty empty 17 7 0 10 -258113
-1 -1;
#X text 132 214 stop;
#X obj 85 720 outlet gemlist;
#X obj 305 542 r \$0-frames;
#X obj 305 564 - 2;
#X obj 262 581 min;
#X connect 0 0 6 0;
#X connect 1 0 7 0;
#X connect 2 0 10 1;
#X connect 3 0 23 0;
#X connect 3 0 21 0;
#X connect 3 0 31 0;
#X connect 4 0 3 0;
#X connect 5 0 4 0;
#X connect 6 0 9 0;
#X connect 7 0 6 0;
#X connect 7 1 6 1;
#X connect 8 0 11 0;
#X connect 9 0 10 0;
#X connect 10 0 8 0;
#X connect 11 0 13 0;
#X connect 13 0 48 0;
#X connect 13 1 48 1;
#X connect 15 0 48 0;
#X connect 16 0 4 0;
#X connect 16 1 19 0;
#X connect 17 0 19 0;
#X connect 18 0 17 0;
#X connect 19 0 3 0;
#X connect 20 0 29 0;
#X connect 21 0 22 0;
#X connect 23 0 30 0;
#X connect 24 0 23 1;
#X connect 25 0 3 0;
#X connect 26 0 16 0;
#X connect 27 0 16 0;
#X connect 29 0 23 0;
#X connect 29 1 25 0;
#X connect 30 0 63 0;
#X connect 31 0 34 0;
#X connect 32 0 31 1;
#X connect 34 0 33 0;
#X connect 36 0 40 1;
#X connect 37 0 40 0;
#X connect 38 0 39 0;
#X connect 39 0 37 0;
#X connect 40 0 41 0;
#X connect 41 0 55 0;
#X connect 42 0 37 0;
#X connect 42 0 45 0;
#X connect 43 0 42 0;
#X connect 44 0 43 0;
#X connect 48 0 5 0;
#X connect 49 0 50 0;
#X connect 50 0 51 1;
#X connect 51 0 53 0;
#X connect 52 0 51 0;
#X connect 55 0 60 0;
#X connect 56 0 57 0;
#X connect 57 0 3 0;
#X connect 58 0 57 0;
#X connect 61 0 62 0;
#X connect 62 0 63 1;
#X connect 63 0 36 0;
#X restore 384 151 pd reproduz;
#X obj 109 124 tgl 15 0 \$0-render \$0-renderin empty 17 7 0 10 -13381
-262144 -1 1 1;
#X obj 238 124 tgl 15 0 \$0-loop \$0-loopin empty 17 7 0 10 -4032 -1
-1 1 1;
#X obj 112 227 hsl 128 12 0 1 0 0 \$0-transparencia \$0-transparenciain
empty -2 -8 0 10 -204800 -1 -1 5800 1;
#N canvas 392 113 513 608 plota 0;
#X obj 86 323 translateXYZ;
#X floatatom 109 296 5 0 0 0 - - -;
#X floatatom 146 296 5 0 0 0 - - -;
#X floatatom 111 393 5 0 0 0 - - -;
#X obj 86 415 scale 0.5;
#X floatatom 183 296 5 0 0 0 - - -;
#X obj 86 555 rectangle 4 3;
#X obj 86 131 pix_alpha;
#X msg 155 131 1 1 1;
#X obj 202 131 r \$0-carregado;
#X obj 86 228 pix_texture;
#X obj 86 156 alpha;
#X obj 98 102 r \$0-transparencia;
#X obj 86 41 inlet gemlist;
#X text 226 295 posição no X Y Z;
#X obj 109 271 r \$0-X;
#X obj 158 271 r \$0-Y;
#X obj 208 271 r \$0-Z;
#X obj 111 368 r \$0-T;
#X text 153 415 tamanho;
#X obj 202 153 r \$0-lb;
#X msg 202 175 1;
#X obj 202 198 s \$0-transparenciain;
#X text 301 130 transparência;
#X connect 0 0 4 0;
#X connect 1 0 0 1;
#X connect 2 0 0 2;
#X connect 3 0 4 1;
#X connect 4 0 6 0;
#X connect 5 0 0 3;
#X connect 7 0 11 0;
#X connect 8 0 7 3;
#X connect 9 0 8 0;
#X connect 9 0 21 0;
#X connect 10 0 0 0;
#X connect 11 0 10 0;
#X connect 12 0 7 1;
#X connect 13 0 7 0;
#X connect 15 0 1 0;
#X connect 16 0 2 0;
#X connect 17 0 5 0;
#X connect 18 0 3 0;
#X connect 20 0 8 0;
#X connect 20 0 21 0;
#X connect 21 0 22 0;
#X restore 384 188 pd plota;
#X floatatom 208 279 5 0 0 0 - #0-Tin #0-T;
#X text 266 280 controle de tamanho;
#X obj 209 124 bng 15 250 50 0 \$0-stop \$0-stopin empty 17 7 0 10
-258113 -1 -1;
#X text 269 171 navegação;
#X text 269 196 início/fim;
#X text 269 224 transparência;
#X obj 384 27 inlet;
#X text 428 26 entrada de controles externos;
#X obj 384 120 bng 15 250 50 0 empty empty empty 17 7 0 10 -262144
-1 -1;
#N canvas 101 201 675 381 controles 0;
#X obj 158 44 inlet;
#X obj 54 166 s \$0-renderin;
#X obj 144 166 s \$0-canalbuffer;
#X obj 254 166 s \$0-abrevideoin;
#X obj 364 166 s \$0-inicioin;
#X obj 454 166 s \$0-fimin;
#X obj 524 166 s \$0-navegain;
#X obj 54 196 s \$0-playin;
#X obj 134 196 s \$0-stopin;
#X obj 214 196 s \$0-loopin;
#X obj 294 196 s \$0-transparenciain;
#X obj 427 196 s \$0-Xin;
#X obj 487 196 s \$0-Yin;
#X obj 547 196 s \$0-Zin;
#X obj 54 226 s \$0-Tin;
#X obj 158 90 route render buffer abre inicio fim navega play stop
loop transparencia eixox eixoy eixoz tamanho caminho;
#X obj 124 226 s \$0-caminho;
#X connect 0 0 15 0;
#X connect 15 0 1 0;
#X connect 15 1 2 0;
#X connect 15 2 3 0;
#X connect 15 3 4 0;
#X connect 15 4 5 0;
#X connect 15 5 6 0;
#X connect 15 6 7 0;
#X connect 15 7 8 0;
#X connect 15 8 9 0;
#X connect 15 9 10 0;
#X connect 15 10 11 0;
#X connect 15 11 12 0;
#X connect 15 12 13 0;
#X connect 15 13 14 0;
#X connect 15 14 16 0;
#X restore 384 60 pd controles;
#X text 470 59 roteia controles externos;
#X symbolatom 112 150 21 0 0 0 - #0-videoaberto #0-visor;
#X msg 662 2;
#X msg 662 313;
#X text 91 310 controle de posição X Y Z;
#X obj 112 287 hsl 60 10 -5 5 0 0 \$0-X \$0-Xin x 5 4 0 10 -262144
-1 -1 3100 1;
#X obj 178 246 vsl 10 50 -5 5 0 0 \$0-Y \$0-Yin y 4 5 0 10 -262144
-1 -1 2300 1;
#X obj 111 262 hsl 60 10 -5 5 0 0 \$0-Z \$0-Zin z 5 4 0 10 -262144
-1 -1 5900 1;
#X text 102 101 render abre play stop loop;
#X connect 3 0 24 0;
#X connect 11 0 15 0;
#X connect 22 0 25 0;
#X coords 0 -1 1 1 160 200 1 100 100;
