#N canvas 0 0 1230 612 10;
#X obj 98 277 musical.closest.note;
#X obj 218 233 musical.transpose;
#X floatatom 98 304 5 0 0 0 - - -;
#X obj 98 358 osc~;
#X obj 109 224 random 127;
#X obj 108 191 bng 15 250 50 0 empty empty empty 17 7 0 10 -262144
-1 -1;
#X obj 104 383 *~;
#X obj 159 356 vline~;
#X obj 102 461 dac~;
#X obj 272 409 dac~;
#X obj 273 352 vd~ nota1;
#X obj 275 322 sig~ 300;
#X obj 273 378 *~;
#X obj 306 375 hsl 128 15 0 1 0 0 empty empty empty -2 -8 0 10 -262144
-1 -1 9800 1;
#X floatatom 275 300 5 0 0 0 - - -;
#X obj 164 403 +~;
#X obj 157 443 delwrite~ nota1 100;
#X obj 468 287 musical.closest.note;
#X obj 588 243 musical.transpose;
#X floatatom 468 315 5 0 0 0 - - -;
#X obj 468 368 osc~;
#X obj 479 234 random 127;
#X obj 478 201 bng 15 250 50 0 empty empty empty 17 7 0 10 -262144
-1 -1;
#X obj 474 393 *~;
#X obj 529 366 vline~;
#X obj 472 471 dac~;
#X obj 642 419 dac~;
#X obj 645 332 sig~ 300;
#X obj 643 388 *~;
#X obj 676 385 hsl 128 15 0 1 0 0 empty empty empty -2 -8 0 10 -262144
-1 -1 12100 1;
#X floatatom 645 310 5 0 0 0 - - -;
#X obj 534 413 +~;
#X obj 828 297 musical.closest.note;
#X obj 948 253 musical.transpose;
#X floatatom 827 322 5 0 0 0 - - -;
#X obj 828 378 osc~;
#X obj 839 244 random 127;
#X obj 838 211 bng 15 250 50 0 empty empty empty 17 7 0 10 -262144
-1 -1;
#X obj 834 403 *~;
#X obj 889 376 vline~;
#X obj 832 481 dac~;
#X obj 1002 429 dac~;
#X obj 1005 342 sig~ 300;
#X obj 1003 398 *~;
#X obj 1036 395 hsl 128 15 0 1 0 0 empty empty empty -2 -8 0 10 -262144
-1 -1 12300 1;
#X floatatom 1005 320 5 0 0 0 - - -;
#X obj 894 423 +~;
#X obj 359 54 metro 500;
#X obj 360 32 tgl 15 0 empty empty empty 17 7 0 10 -262144 -1 -1 0
1;
#X obj 99 332 mtof;
#X obj 464 339 mtof;
#X obj 827 352 mtof;
#X msg 160 325 0.3 50 \, 0 20 50;
#X msg 890 345 0.3 50 \, 0 20 50;
#X obj 527 453 delwrite~ nota2 100;
#X obj 643 362 vd~ nota2;
#X obj 887 463 delwrite~ nota3 100;
#X obj 1003 372 vd~ nota3;
#X msg 811 16 0 2 4 5 7 9 11;
#X text 908 17 major;
#X msg 822 39 0 1 4 5 7 8 11;
#X msg 834 62 0 2 4 6 7 9 10;
#X msg 845 84 0 2 3 5 7 8 11;
#X msg 868 129 0 2 4 6 8 10;
#X msg 878 151 0 2 3 5 6 8 9 11;
#X msg 856 107 0 2 3 4 5 6 7 9 10 11;
#X msg 886 173 0 2 4 7 9;
#X msg 894 195 0 2 3 4 7 8 9;
#X obj 778 128 send escala;
#X msg 717 77 0 2 4 7 8;
#X msg 675 34 0 3 5 7 9 11;
#X obj 223 196 r escala;
#X obj 583 216 r escala;
#X obj 946 226 r escala;
#X msg 530 335 0.3 50 \, 0 20 50;
#X connect 0 0 2 0;
#X connect 1 0 0 1;
#X connect 2 0 49 0;
#X connect 3 0 6 0;
#X connect 4 0 0 0;
#X connect 5 0 4 0;
#X connect 5 0 52 0;
#X connect 6 0 8 0;
#X connect 6 0 8 1;
#X connect 6 0 15 0;
#X connect 7 0 6 1;
#X connect 10 0 12 0;
#X connect 11 0 10 0;
#X connect 12 0 9 0;
#X connect 12 0 9 1;
#X connect 12 0 15 1;
#X connect 13 0 12 1;
#X connect 14 0 11 0;
#X connect 15 0 16 0;
#X connect 17 0 19 0;
#X connect 18 0 17 1;
#X connect 19 0 50 0;
#X connect 20 0 23 0;
#X connect 21 0 17 0;
#X connect 22 0 21 0;
#X connect 22 0 74 0;
#X connect 23 0 25 0;
#X connect 23 0 25 1;
#X connect 23 0 31 0;
#X connect 24 0 23 1;
#X connect 27 0 55 0;
#X connect 28 0 26 0;
#X connect 28 0 26 1;
#X connect 28 0 31 1;
#X connect 29 0 28 1;
#X connect 30 0 27 0;
#X connect 31 0 54 0;
#X connect 32 0 34 0;
#X connect 33 0 32 1;
#X connect 34 0 51 0;
#X connect 35 0 38 0;
#X connect 36 0 32 0;
#X connect 37 0 36 0;
#X connect 37 0 53 0;
#X connect 38 0 40 0;
#X connect 38 0 40 1;
#X connect 38 0 46 0;
#X connect 39 0 38 1;
#X connect 42 0 57 0;
#X connect 43 0 41 0;
#X connect 43 0 41 1;
#X connect 43 0 46 1;
#X connect 44 0 43 1;
#X connect 45 0 42 0;
#X connect 46 0 56 0;
#X connect 47 0 5 0;
#X connect 47 0 22 0;
#X connect 47 0 37 0;
#X connect 48 0 47 0;
#X connect 49 0 3 0;
#X connect 50 0 20 0;
#X connect 51 0 35 0;
#X connect 52 0 7 0;
#X connect 53 0 39 0;
#X connect 55 0 28 0;
#X connect 57 0 43 0;
#X connect 58 0 68 0;
#X connect 60 0 68 0;
#X connect 61 0 68 0;
#X connect 62 0 68 0;
#X connect 63 0 68 0;
#X connect 64 0 68 0;
#X connect 65 0 68 0;
#X connect 66 0 68 0;
#X connect 67 0 68 0;
#X connect 69 0 68 0;
#X connect 70 0 68 0;
#X connect 71 0 1 0;
#X connect 72 0 18 0;
#X connect 73 0 33 0;
#X connect 74 0 24 0;
